<svg xmlns="http://www.w3.org/2000/svg" viewBox="0 0 800 450" role="img" aria-label="Before disaster aerial map">
  <defs>
    <linearGradient id="g" x1="0" x2="1"><stop offset="0%" stop-color="#7c5cff"/><stop offset="100%" stop-color="#22e3ff"/></linearGradient>
  </defs>
  <rect width="100%" height="100%" fill="#0b1220"/>
  <!-- Roads grid -->
  <g stroke="#223148" stroke-width="2">
    <path d="M0 100h800M0 200h800M0 300h800"/>
    <path d="M160 0v450M320 0v450M480 0v450M640 0v450"/>
  </g>
  <!-- Blocks/buildings -->
  <g fill="#0f1a2b" stroke="url(#g)">
    <rect x="40" y="120" width="90" height="60" rx="4"/>
    <rect x="210" y="120" width="90" height="60" rx="4"/>
    <rect x="370" y="120" width="100" height="60" rx="4"/>
    <rect x="530" y="120" width="90" height="60" rx="4"/>
    <rect x="690" y="120" width="70" height="60" rx="4"/>

    <rect x="40" y="220" width="100" height="70" rx="4"/>
    <rect x="210" y="220" width="90" height="70" rx="4"/>
    <rect x="370" y="220" width="110" height="70" rx="4"/>
    <rect x="540" y="220" width="90" height="70" rx="4"/>
    <rect x="690" y="220" width="70" height="70" rx="4"/>
  </g>
</svg>
