<svg xmlns="http://www.w3.org/2000/svg" viewBox="0 0 560 300" role="img" aria-label="Flood response illustration">
  <defs>
    <linearGradient id="g" x1="0" x2="1"><stop offset="0%" stop-color="#7c5cff"/><stop offset="100%" stop-color="#22e3ff"/></linearGradient>
    <linearGradient id="water" x1="0" y1="0" x2="0" y2="1"><stop offset="0%" stop-color="#102036"/><stop offset="100%" stop-color="#0f1a2b"/></linearGradient>
  </defs>
  <rect width="100%" height="100%" fill="#0b1220"/>
  <rect x="0" y="180" width="560" height="120" fill="url(#water)"/>
  <g fill="none" stroke="#22e3ff" stroke-opacity="0.6">
    <path d="M0 190c40 10 80 10 120 0s80-10 120 0 80 10 120 0 80-10 120 0"/>
    <path d="M0 210c40 10 80 10 120 0s80-10 120 0 80 10 120 0 80-10 120 0"/>
  </g>
  <!-- House partially submerged -->
  <g stroke="url(#g)" stroke-width="2" fill="none">
    <path d="M120 160l40-28 40 28v34h-80z"/>
    <path d="M160 146v20"/>
  </g>
  <!-- Drone life ring drop -->
  <g stroke="url(#g)" stroke-width="2" fill="none" stroke-linecap="round">
    <circle cx="420" cy="120" r="16"/>
    <path d="M400 100h-18M440 100h18"/>
    <circle cx="420" cy="170" r="8"/>
    <path d="M420 136v26"/>
  </g>
</svg>
