<svg xmlns="http://www.w3.org/2000/svg" viewBox="0 0 560 300" role="img" aria-label="Wildfire response illustration">
  <defs>
    <linearGradient id="g" x1="0" x2="1"><stop offset="0%" stop-color="#7c5cff"/><stop offset="100%" stop-color="#22e3ff"/></linearGradient>
    <linearGradient id="glow" x1="0" y1="0" x2="0" y2="1"><stop offset="0%" stop-color="#1a0f18"/><stop offset="100%" stop-color="#0b1220"/></linearGradient>
  </defs>
  <rect width="100%" height="100%" fill="url(#glow)"/>
  <!-- Trees and flame silhouettes -->
  <g fill="none" stroke="url(#g)" stroke-width="2">
    <path d="M60 230l20-40 20 40M100 230v20"/>
    <path d="M160 230l18-36 18 36M178 230v20"/>
    <path d="M220 230l16-34 16 34M236 230v20"/>
    <path d="M280 230l14-30 14 30M294 230v20"/>
  </g>
  <path d="M130 200c10-18 24-18 32 0 4-10 12-14 18-10 6 4 10 16 6 22-8 12-56 12-56-12z" fill="#ff8d6b" fill-opacity="0.35"/>
  <!-- Drone thermal eye -->
  <g stroke="url(#g)" stroke-width="2" fill="none" stroke-linecap="round">
    <circle cx="460" cy="100" r="16"/>
    <path d="M440 80h-18M480 80h18"/>
    <circle cx="460" cy="100" r="5"/>
  </g>
</svg>
