<svg xmlns="http://www.w3.org/2000/svg" width="22" height="22" viewBox="0 0 24 24" role="img" aria-hidden="true">
  <defs><linearGradient id="g" x1="0" x2="1"><stop offset="0%" stop-color="#7c5cff"/><stop offset="100%" stop-color="#22e3ff"/></linearGradient></defs>
  <path d="M22 5.9c-.7.3-1.4.5-2.2.6.8-.5 1.3-1.2 1.6-2.1-.7.4-1.5.7-2.4.9A3.7 3.7 0 0012 7.9c0 .3 0 .6.1.8-3-.1-5.6-1.6-7.3-3.9-.3.6-.5 1.2-.5 2 0 1.3.7 2.5 1.7 3.2-.6 0-1.2-.2-1.6-.4v.1c0 1.8 1.3 3.2 3 3.5-.3.1-.6.1-1 .1-.2 0-.4 0-.6-.1a3.7 3.7 0 003.5 2.6A7.4 7.4 0 013 18.7a10.4 10.4 0 005.6 1.6c6.7 0 10.3-5.8 10.3-10.8v-.5c.7-.6 1.3-1.2 1.8-1.9z" fill="none" stroke="url(#g)" stroke-width="1.2"/>
</svg>

