<svg xmlns="http://www.w3.org/2000/svg" width="22" height="22" viewBox="0 0 24 24" role="img" aria-hidden="true">
  <defs><linearGradient id="g" x1="0" x2="1"><stop offset="0%" stop-color="#7c5cff"/><stop offset="100%" stop-color="#22e3ff"/></linearGradient></defs>
  <path d="M12 2a10 10 0 00-3.2 19.5c.5.1.7-.2.7-.5v-1.8c-2.8.6-3.4-1.3-3.4-1.3-.5-1.1-1.2-1.4-1.2-1.4-1-.7.1-.7.1-.7 1.1.1 1.7 1.2 1.7 1.2 1 .1.8-.8 1.8-1 .1-.7.4-1.1.7-1.3-2.2-.3-4.5-1.2-4.5-5.1 0-1.1.4-2 1.1-2.8 0-.2-.5-1.4.1-2.9 0 0 .9-.3 2.9 1.1a10 10 0 015.2 0c2-1.4 2.9-1.1 2.9-1.1.6 1.5.1 2.7.1 2.9.7.8 1.1 1.8 1.1 2.8 0 3.9-2.3 4.8-4.5 5.1.3.3.6.8.6 1.6v2.4c0 .3.2.6.7.5A10 10 0 0012 2z" fill="none" stroke="url(#g)" stroke-width="1.2"/>
</svg>

